<!DOCTYPE svg PUBLIC "-//W3C//DTD SVG 1.1//EN" "http://www.w3.org/Graphics/SVG/1.1/DTD/svg11.dtd">
<!-- Uploaded to: SVG Repo, www.svgrepo.com, Transformed by: SVG Repo Mixer Tools -->
<svg fill="#fcfcfc" height="256px" width="256px" version="1.1" id="Layer_1" xmlns="http://www.w3.org/2000/svg" xmlns:xlink="http://www.w3.org/1999/xlink" viewBox="0 0 512.00 512.00" xml:space="preserve" stroke="#fcfcfc" stroke-width="0.00512">
<g id="SVGRepo_bgCarrier" stroke-width="0"/>
<g id="SVGRepo_tracerCarrier" stroke-linecap="round" stroke-linejoin="round"/>
<g id="SVGRepo_iconCarrier"> <g> <g> <path d="M504.533,379.733h-9.6v-282.7c0-18.8-14.242-33.033-33.062-33.033H52.262c-18.821,0-35.196,14.233-35.196,33.033v282.7 H9.6c-4.713,0-9.6,2.75-9.6,7.467v25.6C0,431.625,16.362,448,35.167,448h443.8C497.771,448,512,431.625,512,412.8v-25.6 C512,382.483,509.246,379.733,504.533,379.733z M34.133,97.033c0-9.392,8.721-15.967,18.129-15.967h409.609 c9.408,0,15.996,6.575,15.996,15.967v282.7h-144c-4.713,0-9.6,2.75-9.6,7.467v9.6h-128v-9.6c0-4.717-2.754-7.467-7.467-7.467 H34.133V97.033z M494.933,412.8c0,9.408-6.575,18.133-15.967,18.133h-443.8c-9.392,0-18.1-8.725-18.1-18.133v-16H179.2v7.467 c0,4.717,4.887,9.6,9.6,9.6h145.067c4.713,0,7.467-4.883,7.467-9.6V396.8h153.6V412.8z"/> </g> </g> <g> <g> <path d="M453.333,98.133H60.8c-4.713,0-9.6,2.75-9.6,7.467v247.467c0,4.717,4.887,9.6,9.6,9.6h392.533 c4.713,0,7.467-4.883,7.467-9.6V105.6C460.8,100.883,458.046,98.133,453.333,98.133z M443.733,345.6H68.267V115.2h375.467V345.6z"/> </g> </g> <g> <g> <path d="M393.6,285.867h-240v-25.6h26.667c2.854,0,5.517-1.958,7.1-4.333l25.975-39.234l19.025,37.917 c1.479,2.95,4.479,4.658,7.829,4.65c3.3-0.075,6.262-2.083,7.6-5.1l26.338-59.275l26.337,59.25c1.196,2.692,3.7,4.571,6.621,4.979 c0.392,0.058,0.783,0.081,1.175,0.081c2.512,0,4.921-1.109,6.554-3.067l85.333-102.402c3.017-3.625,2.529-9.008-1.092-12.025 c-3.621-3-9.004-2.525-12.017,1.092l-76.554,91.867L281.929,170.4c-1.367-3.083-4.425-5.067-7.796-5.067 c-3.371,0-6.429,1.983-7.796,5.067l-26.792,60.275l-17.513-35.025c-1.362-2.717-4.067-4.508-7.104-4.7 c-3.054-0.117-5.942,1.792-7.629,4.317L175.7,243.2h-22.1V139.733c0-4.717-3.821-8.533-8.533-8.533 c-4.713,0-8.533,3.817-8.533,8.533v146.133h-16c-4.713,0-8.533,3.817-8.533,8.533c0,4.717,3.821,8.533,8.533,8.533h16v16.2 c0,4.717,3.821,8.533,8.533,8.533c4.713,0,8.533-3.817,8.533-8.533v-16.2h240c4.713,0,8.533-3.817,8.533-8.533 C402.133,289.683,398.313,285.867,393.6,285.867z"/> </g> </g> </g>
</svg>