<?xml version="1.0" encoding="iso-8859-1"?>
<!-- Uploaded to: SVG Repo, www.svgrepo.com, Generator: SVG Repo Mixer Tools -->
<!DOCTYPE svg PUBLIC "-//W3C//DTD SVG 1.1//EN" "http://www.w3.org/Graphics/SVG/1.1/DTD/svg11.dtd">
<svg fill="#000000" height="800px" width="800px" version="1.1" id="Capa_1" xmlns="http://www.w3.org/2000/svg" xmlns:xlink="http://www.w3.org/1999/xlink" 
	 viewBox="0 0 329.562 329.562" xml:space="preserve">
<g>
	<path d="M326.173,272.922l-139.5-241.568c-4.516-7.821-12.861-12.638-21.893-12.638c-9.031,0-17.377,4.816-21.893,12.638
		L3.388,272.922c-4.517,7.821-4.518,17.46-0.002,25.282c4.516,7.822,12.862,12.641,21.894,12.641h279
		c9.032,0,17.378-4.818,21.895-12.641C330.691,290.382,330.691,280.744,326.173,272.922z M25.281,285.565l139.5-241.568
		l139.5,241.568H25.281z"/>
	<path d="M142.434,158.719c-1.113-1.111-2.916-1.111-4.029,0l-20.638,20.638c-0.534,0.534-0.834,1.26-0.834,2.015
		c0,0.756,0.3,1.481,0.834,2.015l22.345,22.344l-22.346,22.346c-0.534,0.534-0.835,1.259-0.835,2.015c0,0.756,0.3,1.48,0.835,2.015
		l20.641,20.64c0.557,0.556,1.286,0.834,2.015,0.834s1.458-0.278,2.015-0.834l22.345-22.345l22.345,22.345
		c0.535,0.534,1.259,0.834,2.015,0.834c0.755,0,1.48-0.3,2.015-0.834l20.637-20.638c1.112-1.112,1.112-2.917,0-4.029l-22.345-22.345
		l22.347-22.347c0.534-0.534,0.834-1.259,0.834-2.015c0-0.755-0.3-1.48-0.835-2.015l-20.641-20.639
		c-1.112-1.113-2.915-1.111-4.029,0l-22.347,22.346L142.434,158.719z"/>
</g>
</svg>